ffmpeg started on 2016-12-02 at 18:58:53
Report written to "Output/x264/results/ffmpeg/old_town_cross_2160p50veryslow8000k.log"
Command line:
Tools/ffmpeg/ffmpeg -benchmark -y -i Input/y4m/old_town_cross_2160p50.y4m -c:v libx264 -preset veryslow -b:v 8000k -an Output/x264/encoded/old_town_cross_2160p50veryslow8000k.mkv
ffmpeg version N-82227-gdb23fde Copyright (c) 2000-2016 the FFmpeg developers
  built with gcc 5.4.0 (Ubuntu 5.4.0-6ubuntu1~16.04.2) 20160609
  configuration: --prefix=/home/jaroslav/ffmpeg_build --pkg-config-flags=--static --extra-cflags=-I/home/jaroslav/ffmpeg_build/include --extra-ldflags=-L/home/jaroslav/ffmpeg_build/lib --bindir=/home/jaroslav/bin --enable-gpl --enable-libass --enable-libfdk-aac --enable-libfreetype --enable-libmp3lame --enable-libopus --enable-libtheora --enable-libvorbis --enable-libvpx --enable-libx264 --enable-libx265 --enable-nvenc --enable-libmfx --enable-libxvid --enable-libgsm --enable-libopencore-amrnb --enable-version3 --enable-nonfree
  libavutil      55. 35.100 / 55. 35.100
  libavcodec     57. 66.101 / 57. 66.101
  libavformat    57. 57.100 / 57. 57.100
  libavdevice    57.  2.100 / 57.  2.100
  libavfilter     6. 66.100 /  6. 66.100
  libswscale      4.  3.100 /  4.  3.100
  libswresample   2.  4.100 /  2.  4.100
  libpostproc    54.  2.100 / 54.  2.100
Input #0, yuv4mpegpipe, from 'Input/y4m/old_town_cross_2160p50.y4m':
  Duration: 00:00:10.00, start: 0.000000, bitrate: 4976642 kb/s
    Stream #0:0: Video: rawvideo (I420 / 0x30323449), yuv420p(progressive), 3840x2160, SAR 1:1 DAR 16:9, 50 fps, 50 tbr, 50 tbn, 50 tbc
[libx264 @ 0x345c120] using SAR=1/1
[libx264 @ 0x345c120] DPB size (16 frames, 518400 mbs) > level limit (5 frames, 184320 mbs)
[libx264 @ 0x345c120] using cpu capabilities: MMX2 SSE2Fast SSSE3 SSE4.2 AVX FMA3 AVX2 LZCNT BMI2
[libx264 @ 0x345c120] profile High, level 5.2
[libx264 @ 0x345c120] 264 - core 148 - H.264/MPEG-4 AVC codec - Copyleft 2003-2016 - http://www.videolan.org/x264.html - options: cabac=1 ref=16 deblock=1:0:0 analyse=0x3:0x133 me=umh subme=10 psy=1 psy_rd=1.00:0.00 mixed_ref=1 me_range=24 chroma_me=1 trellis=2 8x8dct=1 cqm=0 deadzone=21,11 fast_pskip=1 chroma_qp_offset=-2 threads=6 lookahead_threads=1 sliced_threads=0 nr=0 decimate=1 interlaced=0 bluray_compat=0 constrained_intra=0 bframes=8 b_pyramid=2 b_adapt=2 b_bias=0 direct=3 weightb=1 open_gop=0 weightp=2 keyint=250 keyint_min=25 scenecut=40 intra_refresh=0 rc_lookahead=60 rc=abr mbtree=1 bitrate=8000 ratetol=1.0 qcomp=0.60 qpmin=0 qpmax=69 qpstep=4 ip_ratio=1.40 aq=1:1.00
Output #0, matroska, to 'Output/x264/encoded/old_town_cross_2160p50veryslow8000k.mkv':
  Metadata:
    encoder         : Lavf57.57.100
    Stream #0:0: Video: h264 (libx264) (H264 / 0x34363248), yuv420p, 3840x2160 [SAR 1:1 DAR 16:9], q=-1--1, 8000 kb/s, 50 fps, 1k tbn, 50 tbc
    Metadata:
      encoder         : Lavc57.66.101 libx264
    Side data:
      cpb: bitrate max/min/avg: 0/0/8000000 buffer size: 0 vbv_delay: -1
Stream mapping:
  Stream #0:0 -> #0:0 (rawvideo (native) -> h264 (libx264))
Press [q] to stop, [?] for help
frame=   60 fps=0.0 q=0.0 size=       0kB time=00:00:00.00 bitrate=N/A speed=   0x    frame=   72 fps=8.0 q=0.0 size=       0kB time=00:00:00.00 bitrate=N/A speed=   0x    frame=   77 fps=7.2 q=35.0 size=       1kB time=-00:00:00.01 bitrate=N/A speed=N/A    frame=   79 fps=7.0 q=35.0 size=       1kB time=00:00:00.02 bitrate= 280.4kbits/s speed=0.00187x    frame=   82 fps=6.8 q=39.0 size=       1kB time=00:00:00.08 bitrate=  72.7kbits/s speed=0.00675x    frame=   88 fps=6.7 q=42.0 size=       1kB time=00:00:00.20 bitrate=  29.3kbits/s speed=0.0152x    frame=   91 fps=6.1 q=42.0 size=       1kB time=00:00:00.26 bitrate=  22.6kbits/s speed=0.0175x    frame=   96 fps=6.1 q=42.0 size=       1kB time=00:00:00.36 bitrate=  16.3kbits/s speed=0.023x    frame=   98 fps=6.0 q=41.0 size=       1kB time=00:00:00.40 bitrate=  14.7kbits/s speed=0.0245x    frame=  100 fps=5.6 q=40.0 size=       1kB time=00:00:00.44 bitrate=  13.4kbits/s speed=0.0248x    frame=  105 fps=5.5 q=39.0 size=       1kB time=00:00:00.54 bitrate=  10.9kbits/s speed=0.0285x    frame=  106 fps=5.4 q=39.0 size=       1kB time=00:00:00.56 bitrate=  10.5kbits/s speed=0.0287x    frame=  108 fps=5.3 q=38.0 size=       1kB time=00:00:00.60 bitrate=   9.8kbits/s speed=0.0294x    frame=  113 fps=5.1 q=38.0 size=       1kB time=00:00:00.70 bitrate=   8.4kbits/s speed=0.0314x    frame=  115 fps=5.0 q=37.0 size=       1kB time=00:00:00.74 bitrate=   7.9kbits/s speed=0.032x    frame=  119 fps=4.9 q=37.0 size=       1kB time=00:00:00.82 bitrate=   7.2kbits/s speed=0.0336x    frame=  122 fps=4.6 q=37.0 size=       1kB time=00:00:00.88 bitrate=   6.7kbits/s speed=0.0332x    frame=  124 fps=4.6 q=36.0 size=       1kB time=00:00:00.92 bitrate=   6.4kbits/s speed=0.0339x    frame=  128 fps=4.5 q=36.0 size=       1kB time=00:00:01.00 bitrate=   5.9kbits/s speed=0.0349x    frame=  129 fps=4.4 q=36.0 size=       1kB time=00:00:01.02 bitrate=   5.8kbits/s speed=0.0348x    frame=  131 fps=4.3 q=36.0 size=       1kB time=00:00:01.06 bitrate=   5.5kbits/s speed=0.0346x    frame=  132 fps=4.2 q=36.0 size=       1kB time=00:00:01.08 bitrate=   5.4kbits/s speed=0.0346x    frame=  135 fps=4.2 q=36.0 size=       1kB time=00:00:01.14 bitrate=   5.2kbits/s speed=0.0357x    frame=  137 fps=4.1 q=36.0 size=       1kB time=00:00:01.18 bitrate=   5.0kbits/s speed=0.0354x    frame=  138 fps=4.0 q=35.0 size=       1kB time=00:00:01.20 bitrate=   4.9kbits/s speed=0.0352x    frame=  139 fps=3.9 q=35.0 size=       1kB time=00:00:01.22 bitrate=   4.8kbits/s speed=0.0346x    frame=  141 fps=3.9 q=35.0 size=       1kB time=00:00:01.26 bitrate=   4.7kbits/s speed=0.0351x    frame=  144 fps=3.9 q=35.0 size=       1kB time=00:00:01.32 bitrate=   4.5kbits/s speed=0.0362x    frame=  145 fps=3.8 q=35.0 size=       1kB time=00:00:01.34 bitrate=   4.4kbits/s speed=0.0354x    frame=  146 fps=3.8 q=35.0 size=       1kB time=00:00:01.36 bitrate=   4.3kbits/s speed=0.0352x    frame=  148 fps=3.7 q=35.0 size=       1kB time=00:00:01.40 bitrate=   4.2kbits/s speed=0.0355x    frame=  149 fps=3.7 q=35.0 size=       1kB time=00:00:01.42 bitrate=   4.1kbits/s speed=0.0353x    frame=  152 fps=3.7 q=35.0 size=       1kB time=00:00:01.48 bitrate=   4.0kbits/s speed=0.0362x    frame=  153 fps=3.7 q=35.0 size=       1kB time=00:00:01.50 bitrate=   3.9kbits/s speed=0.0361x    frame=  154 fps=3.6 q=35.0 size=       1kB time=00:00:01.52 bitrate=   3.9kbits/s speed=0.0359x    frame=  155 fps=3.6 q=35.0 size=       1kB time=00:00:01.54 bitrate=   3.8kbits/s speed=0.0356x    frame=  157 fps=3.5 q=35.0 size=       1kB time=00:00:01.58 bitrate=   3.7kbits/s speed=0.0355x    frame=  159 fps=3.5 q=35.0 size=       1kB time=00:00:01.62 bitrate=   3.6kbits/s speed=0.0359x    frame=  161 fps=3.5 q=35.0 size=       1kB time=00:00:01.66 bitrate=   3.5kbits/s speed=0.0363x    frame=  162 fps=3.5 q=35.0 size=       1kB time=00:00:01.68 bitrate=   3.5kbits/s speed=0.0362x    frame=  163 fps=3.4 q=35.0 size=       1kB time=00:00:01.70 bitrate=   3.5kbits/s speed=0.0356x    frame=  166 fps=3.4 q=35.0 size=       1kB time=00:00:01.76 bitrate=   3.3kbits/s speed=0.0358x    frame=  167 fps=3.3 q=35.0 size=       1kB time=00:00:01.78 bitrate=   3.3kbits/s speed=0.0355x    frame=  172 fps=3.3 q=35.0 size=       1kB time=00:00:01.88 bitrate=   3.1kbits/s speed=0.0365x    frame=  173 fps=3.2 q=35.0 size=       1kB time=00:00:01.90 bitrate=   3.1kbits/s speed=0.0356x    frame=  175 fps=3.2 q=35.0 size=       1kB time=00:00:01.94 bitrate=   3.0kbits/s speed=0.0358x    frame=  177 fps=3.2 q=35.0 size=       1kB time=00:00:01.98 bitrate=   3.0kbits/s speed=0.0361x    frame=  179 fps=3.2 q=34.0 size=       1kB time=00:00:02.02 bitrate=   2.9kbits/s speed=0.036x    frame=  181 fps=3.2 q=35.0 size=       1kB time=00:00:02.06 bitrate=   2.9kbits/s speed=0.036x    frame=  183 fps=3.1 q=34.0 size=       1kB time=00:00:02.10 bitrate=   2.8kbits/s speed=0.0362x    frame=  184 fps=3.1 q=34.0 size=       1kB time=00:00:02.12 bitrate=   2.8kbits/s speed=0.0359x    frame=  185 fps=3.1 q=34.0 size=       1kB time=00:00:02.14 bitrate=   2.8kbits/s speed=0.0357x    frame=  190 fps=3.1 q=34.0 size=       1kB time=00:00:02.24 bitrate=   2.6kbits/s speed=0.0365x    frame=  191 fps=3.1 q=34.0 size=       1kB time=00:00:02.26 bitrate=   2.6kbits/s speed=0.0362x    frame=  192 fps=3.0 q=34.0 size=       1kB time=00:00:02.28 bitrate=   2.6kbits/s speed=0.036x    frame=  193 fps=3.0 q=34.0 size=       1kB time=00:00:02.30 bitrate=   2.6kbits/s speed=0.0358x    frame=  195 fps=3.0 q=34.0 size=       1kB time=00:00:02.34 bitrate=   2.5kbits/s speed=0.0359x    frame=  199 fps=3.0 q=34.0 size=       1kB time=00:00:02.42 bitrate=   2.4kbits/s speed=0.036x    frame=  201 fps=3.0 q=34.0 size=       1kB time=00:00:02.46 bitrate=   2.4kbits/s speed=0.0364x    frame=  202 fps=2.9 q=34.0 size=       1kB time=00:00:02.48 bitrate=   2.4kbits/s speed=0.0358x    frame=  204 fps=2.9 q=34.0 size=       1kB time=00:00:02.52 bitrate=   2.3kbits/s speed=0.036x    frame=  208 fps=2.9 q=34.0 size=       1kB time=00:00:02.60 bitrate=   2.3kbits/s speed=0.0361x    frame=  209 fps=2.8 q=34.0 size=       1kB time=00:00:02.62 bitrate=   2.2kbits/s speed=0.0357x    frame=  211 fps=2.8 q=34.0 size=       1kB time=00:00:02.66 bitrate=   2.2kbits/s speed=0.0358x    frame=  215 fps=2.8 q=34.0 size=       1kB time=00:00:02.74 bitrate=   2.1kbits/s speed=0.036x    frame=  216 fps=2.8 q=34.0 size=       1kB time=00:00:02.76 bitrate=   2.1kbits/s speed=0.0358x    frame=  218 fps=2.8 q=34.0 size=       1kB time=00:00:02.80 bitrate=   2.1kbits/s speed=0.0359x    frame=  220 fps=2.8 q=34.0 size=       1kB time=00:00:02.84 bitrate=   2.1kbits/s speed=0.0359x    frame=  222 fps=2.8 q=34.0 size=       1kB time=00:00:02.88 bitrate=   2.0kbits/s speed=0.036x    frame=  224 fps=2.8 q=34.0 size=       1kB time=00:00:02.92 bitrate=   2.0kbits/s speed=0.036x    frame=  225 fps=2.7 q=34.0 size=       1kB time=00:00:02.94 bitrate=   2.0kbits/s speed=0.0357x    frame=  228 fps=2.7 q=34.0 size=       1kB time=00:00:03.00 bitrate=   2.0kbits/s speed=0.0358x    frame=  230 fps=2.7 q=34.0 size=       1kB time=00:00:03.04 bitrate=   1.9kbits/s speed=0.036x    frame=  233 fps=2.7 q=34.0 size=       1kB time=00:00:03.10 bitrate=   1.9kbits/s speed=0.0358x    frame=  234 fps=2.7 q=34.0 size=       1kB time=00:00:03.12 bitrate=   1.9kbits/s speed=0.0356x    frame=  239 fps=2.7 q=34.0 size=       1kB time=00:00:03.22 bitrate=   1.8kbits/s speed=0.036x    frame=  240 fps=2.6 q=34.0 size=       1kB time=00:00:03.24 bitrate=   1.8kbits/s speed=0.0357x    frame=  245 fps=2.7 q=34.0 size=       1kB time=00:00:03.34 bitrate=   1.8kbits/s speed=0.0365x    frame=  246 fps=2.6 q=34.0 size=       1kB time=00:00:03.36 bitrate=   1.8kbits/s speed=0.0361x    frame=  247 fps=2.6 q=34.0 size=       1kB time=00:00:03.38 bitrate=   1.7kbits/s speed=0.0358x    frame=  248 fps=2.6 q=34.0 size=       1kB time=00:00:03.40 bitrate=   1.7kbits/s speed=0.0358x    frame=  251 fps=2.6 q=34.0 size=       1kB time=00:00:03.46 bitrate=   1.7kbits/s speed=0.0362x    frame=  252 fps=2.6 q=34.0 size=       1kB time=00:00:03.48 bitrate=   1.7kbits/s speed=0.0361x    frame=  253 fps=2.6 q=34.0 size=       1kB time=00:00:03.50 bitrate=   1.7kbits/s speed=0.0361x    frame=  254 fps=2.6 q=34.0 size=       1kB time=00:00:03.52 bitrate=   1.7kbits/s speed=0.0359x    frame=  259 fps=2.6 q=34.0 size=       1kB time=00:00:03.62 bitrate=   1.6kbits/s speed=0.0365x    frame=  260 fps=2.6 q=34.0 size=       1kB time=00:00:03.64 bitrate=   1.6kbits/s speed=0.0359x    frame=  262 fps=2.6 q=34.0 size=       1kB time=00:00:03.68 bitrate=   1.6kbits/s speed=0.0361x    frame=  266 fps=2.6 q=34.0 size=       1kB time=00:00:03.76 bitrate=   1.6kbits/s speed=0.0361x    frame=  269 fps=2.5 q=34.0 size=       1kB time=00:00:03.82 bitrate=   1.5kbits/s speed=0.036x    frame=  270 fps=2.5 q=34.0 size=       1kB time=00:00:03.84 bitrate=   1.5kbits/s speed=0.036x    frame=  274 fps=2.6 q=34.0 size=       1kB time=00:00:03.92 bitrate=   1.5kbits/s speed=0.0366x    frame=  275 fps=2.5 q=34.0 size=       1kB time=00:00:03.94 bitrate=   1.5kbits/s speed=0.0362x    frame=  276 fps=2.5 q=34.0 size=       1kB time=00:00:03.96 bitrate=   1.5kbits/s speed=0.036x    frame=  279 fps=2.5 q=34.0 size=       1kB time=00:00:04.02 bitrate=   1.5kbits/s speed=0.0361x    frame=  282 fps=2.5 q=34.0 size=       1kB time=00:00:04.08 bitrate=   1.4kbits/s speed=0.0363x    frame=  284 fps=2.5 q=34.0 size=       1kB time=00:00:04.12 bitrate=   1.4kbits/s speed=0.0364x    frame=  286 fps=2.5 q=34.0 size=       1kB time=00:00:04.16 bitrate=   1.4kbits/s speed=0.0362x    frame=  287 fps=2.5 q=34.0 size=       1kB time=00:00:04.18 bitrate=   1.4kbits/s speed=0.0362x    frame=  289 fps=2.5 q=34.0 size=       1kB time=00:00:04.22 bitrate=   1.4kbits/s speed=0.0363x    frame=  292 fps=2.5 q=34.0 size=       1kB time=00:00:04.28 bitrate=   1.4kbits/s speed=0.0364x    frame=  293 fps=2.5 q=34.0 size=       1kB time=00:00:04.30 bitrate=   1.4kbits/s speed=0.0363x    frame=  295 fps=2.5 q=34.0 size=       1kB time=00:00:04.34 bitrate=   1.4kbits/s speed=0.0362x    frame=  296 fps=2.4 q=34.0 size=       1kB time=00:00:04.36 bitrate=   1.4kbits/s speed=0.0361x    frame=  299 fps=2.5 q=34.0 size=       1kB time=00:00:04.42 bitrate=   1.3kbits/s speed=0.0364x    frame=  301 fps=2.5 q=34.0 size=       1kB time=00:00:04.46 bitrate=   1.3kbits/s speed=0.0365x    frame=  302 fps=2.4 q=34.0 size=       1kB time=00:00:04.48 bitrate=   1.3kbits/s speed=0.0364x    frame=  303 fps=2.4 q=34.0 size=       1kB time=00:00:04.50 bitrate=   1.3kbits/s speed=0.0361x    frame=  305 fps=2.4 q=34.0 size=       1kB time=00:00:04.54 bitrate=   1.3kbits/s speed=0.0361x    frame=  309 fps=2.4 q=34.0 size=       1kB time=00:00:04.62 bitrate=   1.3kbits/s speed=0.0363x    frame=  310 fps=2.4 q=34.0 size=       1kB time=00:00:04.64 bitrate=   1.3kbits/s speed=0.0362x    frame=  311 fps=2.4 q=34.0 size=       1kB time=00:00:04.66 bitrate=   1.3kbits/s speed=0.0361x    frame=  313 fps=2.4 q=34.0 size=       1kB time=00:00:04.70 bitrate=   1.3kbits/s speed=0.0356x    frame=  318 fps=2.4 q=34.0 size=       1kB time=00:00:04.80 bitrate=   1.2kbits/s speed=0.0358x    frame=  319 fps=2.4 q=34.0 size=       1kB time=00:00:04.82 bitrate=   1.2kbits/s speed=0.0358x    frame=  323 fps=2.4 q=35.0 size=       1kB time=00:00:04.90 bitrate=   1.2kbits/s speed=0.0362x    frame=  324 fps=2.4 q=35.0 size=       1kB time=00:00:04.92 bitrate=   1.2kbits/s speed=0.036x    frame=  326 fps=2.4 q=35.0 size=    4480kB time=00:00:04.96 bitrate=7398.0kbits/s speed=0.0359x    frame=  329 fps=2.4 q=35.0 size=    4480kB time=00:00:05.02 bitrate=7309.6kbits/s speed=0.0362x    frame=  333 fps=2.4 q=35.0 size=    4480kB time=00:00:05.10 bitrate=7195.0kbits/s speed=0.0365x    frame=  336 fps=2.4 q=35.0 size=    4480kB time=00:00:05.16 bitrate=7111.3kbits/s speed=0.0367x    frame=  338 fps=2.4 q=36.0 size=    4480kB time=00:00:05.20 bitrate=7056.6kbits/s speed=0.0368x    frame=  342 fps=2.4 q=36.0 size=    4480kB time=00:00:05.28 bitrate=6949.7kbits/s speed=0.037x    frame=  345 fps=2.4 q=36.0 size=    4480kB time=00:00:05.34 bitrate=6871.7kbits/s speed=0.0371x    frame=  346 fps=2.4 q=36.0 size=    4480kB time=00:00:05.36 bitrate=6846.0kbits/s speed=0.0371x    frame=  351 fps=2.4 q=36.0 size=    4480kB time=00:00:05.46 bitrate=6720.7kbits/s speed=0.0373x    frame=  353 fps=2.4 q=36.0 size=    4480kB time=00:00:05.50 bitrate=6671.8kbits/s speed=0.0375x    frame=  355 fps=2.4 q=36.0 size=    4480kB time=00:00:05.54 bitrate=6623.6kbits/s speed=0.0375x    frame=  357 fps=2.4 q=35.0 size=    4480kB time=00:00:05.58 bitrate=6576.2kbits/s speed=0.0375x    frame=  359 fps=2.4 q=36.0 size=    4480kB time=00:00:05.62 bitrate=6529.4kbits/s speed=0.0376x    frame=  362 fps=2.4 q=36.0 size=    4480kB time=00:00:05.68 bitrate=6460.4kbits/s speed=0.0379x    frame=  363 fps=2.4 q=36.0 size=    4480kB time=00:00:05.70 bitrate=6437.7kbits/s speed=0.0374x    frame=  365 fps=2.4 q=36.0 size=    4480kB time=00:00:05.74 bitrate=6392.9kbits/s speed=0.0375x    frame=  369 fps=2.4 q=35.0 size=    4480kB time=00:00:05.82 bitrate=6305.0kbits/s speed=0.0377x    frame=  370 fps=2.4 q=35.0 size=    4480kB time=00:00:05.84 bitrate=6283.4kbits/s speed=0.0376x    frame=  374 fps=2.4 q=35.0 size=    4480kB time=00:00:05.92 bitrate=6198.5kbits/s speed=0.0378x    frame=  376 fps=2.4 q=35.0 size=    4480kB time=00:00:05.96 bitrate=6157.0kbits/s speed=0.0376x    frame=  377 fps=2.4 q=35.0 size=    4480kB time=00:00:05.98 bitrate=6136.4kbits/s speed=0.0375x    frame=  379 fps=2.4 q=35.0 size=    4480kB time=00:00:06.02 bitrate=6095.6kbits/s speed=0.0376x    frame=  382 fps=2.4 q=35.0 size=    4480kB time=00:00:06.08 bitrate=6035.5kbits/s speed=0.0377x    frame=  383 fps=2.4 q=35.0 size=    4480kB time=00:00:06.10 bitrate=6015.7kbits/s speed=0.0376x    frame=  384 fps=2.4 q=35.0 size=    4480kB time=00:00:06.12 bitrate=5996.0kbits/s speed=0.0375x    frame=  387 fps=2.4 q=35.0 size=    4480kB time=00:00:06.18 bitrate=5937.8kbits/s speed=0.0377x    frame=  388 fps=2.4 q=35.0 size=    4480kB time=00:00:06.20 bitrate=5918.7kbits/s speed=0.0377x    frame=  390 fps=2.3 q=35.0 size=    4480kB time=00:00:06.24 bitrate=5880.7kbits/s speed=0.0375x    frame=  391 fps=2.3 q=35.0 size=    4480kB time=00:00:06.26 bitrate=5861.9kbits/s speed=0.0374x    frame=  393 fps=2.3 q=35.0 size=    4480kB time=00:00:06.30 bitrate=5824.7kbits/s speed=0.0375x    frame=  396 fps=2.3 q=35.0 size=    4480kB time=00:00:06.36 bitrate=5769.8kbits/s speed=0.0375x    frame=  397 fps=2.3 q=35.0 size=    4480kB time=00:00:06.38 bitrate=5751.7kbits/s speed=0.0373x    frame=  400 fps=2.3 q=35.0 size=    4480kB time=00:00:06.44 bitrate=5698.1kbits/s speed=0.0375x    frame=  401 fps=2.3 q=35.0 size=    4480kB time=00:00:06.46 bitrate=5680.5kbits/s speed=0.0374x    frame=  403 fps=2.3 q=35.0 size=    4480kB time=00:00:06.50 bitrate=5645.5kbits/s speed=0.0375x    frame=  405 fps=2.3 q=35.0 size=    4480kB time=00:00:06.54 bitrate=5611.0kbits/s speed=0.0375x    frame=  407 fps=2.3 q=35.0 size=    4480kB time=00:00:06.58 bitrate=5576.9kbits/s speed=0.0374x    frame=  409 fps=2.3 q=35.0 size=    4480kB time=00:00:06.62 bitrate=5543.2kbits/s speed=0.0373x    frame=  410 fps=2.3 q=35.0 size=    4480kB time=00:00:06.64 bitrate=5526.5kbits/s speed=0.0373x    frame=  415 fps=2.3 q=35.0 size=    4480kB time=00:00:06.74 bitrate=5444.5kbits/s speed=0.0373x    frame=  416 fps=2.3 q=35.0 size=    4480kB time=00:00:06.76 bitrate=5428.4kbits/s speed=0.0372x    frame=  419 fps=2.3 q=35.0 size=    4480kB time=00:00:06.82 bitrate=5380.7kbits/s speed=0.0372x    frame=  422 fps=2.3 q=35.0 size=    4480kB time=00:00:06.88 bitrate=5333.8kbits/s speed=0.0374x    frame=  424 fps=2.3 q=35.0 size=    4480kB time=00:00:06.92 bitrate=5302.9kbits/s speed=0.0374x    frame=  425 fps=2.3 q=35.0 size=    4480kB time=00:00:06.94 bitrate=5287.7kbits/s speed=0.0372x    frame=  428 fps=2.3 q=35.0 size=    4480kB time=00:00:07.00 bitrate=5242.3kbits/s speed=0.0372x    frame=  431 fps=2.3 q=35.0 size=    4480kB time=00:00:07.06 bitrate=5197.8kbits/s speed=0.0373x    frame=  433 fps=2.3 q=35.0 size=    4480kB time=00:00:07.10 bitrate=5168.5kbits/s speed=0.0373x    frame=  434 fps=2.3 q=35.0 size=    4480kB time=00:00:07.12 bitrate=5154.0kbits/s speed=0.0372x    frame=  435 fps=2.3 q=35.0 size=    4480kB time=00:00:07.14 bitrate=5139.6kbits/s speed=0.0372x    frame=  437 fps=2.3 q=35.0 size=    4480kB time=00:00:07.18 bitrate=5110.9kbits/s speed=0.0371x    frame=  441 fps=2.3 q=35.0 size=    4480kB time=00:00:07.26 bitrate=5054.6kbits/s speed=0.0372x    frame=  443 fps=2.2 q=35.0 size=    4480kB time=00:00:07.30 bitrate=5026.9kbits/s speed=0.037x    frame=  445 fps=2.2 q=35.0 size=    4480kB time=00:00:07.34 bitrate=4999.5kbits/s speed=0.0371x    frame=  446 fps=2.2 q=35.0 size=    4480kB time=00:00:07.36 bitrate=4986.0kbits/s speed=0.037x    frame=  449 fps=2.2 q=35.0 size=    4480kB time=00:00:07.42 bitrate=4945.6kbits/s speed=0.0371x    frame=  451 fps=2.2 q=35.0 size=    4480kB time=00:00:07.46 bitrate=4919.1kbits/s speed=0.0371x    frame=  452 fps=2.2 q=35.0 size=    4480kB time=00:00:07.48 bitrate=4906.0kbits/s speed=0.037x    frame=  453 fps=2.2 q=35.0 size=    4480kB time=00:00:07.50 bitrate=4892.9kbits/s speed=0.037x    frame=  456 fps=2.2 q=35.0 size=    4480kB time=00:00:07.56 bitrate=4854.1kbits/s speed=0.0372x    frame=  458 fps=2.2 q=35.0 size=    4480kB time=00:00:07.60 bitrate=4828.5kbits/s speed=0.0369x    frame=  460 fps=2.2 q=35.0 size=    4480kB time=00:00:07.64 bitrate=4803.2kbits/s speed=0.0369x    frame=  463 fps=2.2 q=35.0 size=    4480kB time=00:00:07.70 bitrate=4765.8kbits/s speed=0.037x    frame=  464 fps=2.2 q=35.0 size=    4480kB time=00:00:07.72 bitrate=4753.5kbits/s speed=0.0369x    frame=  469 fps=2.2 q=35.0 size=    4480kB time=00:00:07.82 bitrate=4692.7kbits/s speed=0.0372x    frame=  470 fps=2.2 q=35.0 size=    4480kB time=00:00:07.84 bitrate=4680.7kbits/s speed=0.0369x    frame=  473 fps=2.2 q=35.0 size=    4480kB time=00:00:07.90 bitrate=4645.2kbits/s speed=0.037x    frame=  474 fps=2.2 q=35.0 size=    4480kB time=00:00:07.92 bitrate=4633.5kbits/s speed=0.037x    frame=  476 fps=2.2 q=35.0 size=    4480kB time=00:00:07.96 bitrate=4610.2kbits/s speed=0.0369x    frame=  477 fps=2.2 q=35.0 size=    4480kB time=00:00:07.98 bitrate=4598.6kbits/s speed=0.0369x    frame=  479 fps=2.2 q=35.0 size=    4480kB time=00:00:08.02 bitrate=4575.7kbits/s speed=0.0369x    frame=  481 fps=2.2 q=35.0 size=    4480kB time=00:00:08.06 bitrate=4553.0kbits/s speed=0.037x    frame=  483 fps=2.2 q=35.0 size=    4480kB time=00:00:08.10 bitrate=4530.5kbits/s speed=0.0369x    frame=  485 fps=2.2 q=35.0 size=    4480kB time=00:00:08.14 bitrate=4508.2kbits/s speed=0.0369x    frame=  488 fps=2.2 q=35.0 size=    4480kB time=00:00:08.20 bitrate=4475.3kbits/s speed=0.037x    frame=  489 fps=2.2 q=35.0 size=    4480kB time=00:00:08.22 bitrate=4464.4kbits/s speed=0.0368x    frame=  491 fps=2.2 q=35.0 size=    4480kB time=00:00:08.26 bitrate=4442.8kbits/s speed=0.0369x    frame=  494 fps=2.2 q=35.0 size=    4480kB time=00:00:08.32 bitrate=4410.7kbits/s speed=0.0371x    frame=  495 fps=2.2 q=35.0 size=    4480kB time=00:00:08.34 bitrate=4400.1kbits/s speed=0.0369x    frame=  497 fps=2.2 q=35.0 size=    4480kB time=00:00:08.38 bitrate=4379.1kbits/s speed=0.0369x    frame=  500 fps=2.2 q=35.0 size=    4480kB time=00:00:08.44 bitrate=4348.0kbits/s speed=0.0369x    frame=  500 fps=1.9 q=-1.0 Lsize=    9811kB time=00:00:09.94 bitrate=8085.0kbits/s speed=0.0372x    
video:9807kB audio:0kB subtitle:0kB other streams:0kB global headers:0kB muxing overhead: 0.044483%
bench: utime=1022.368s
bench: maxrss=3693416kB
[libx264 @ 0x345c120] frame I:3     Avg QP:31.35  size:418190
[libx264 @ 0x345c120] frame P:63    Avg QP:34.18  size: 54671
[libx264 @ 0x345c120] frame B:434   Avg QP:36.71  size: 12310
[libx264 @ 0x345c120] consecutive B-frames:  0.8%  0.0%  0.0%  1.6%  4.0%  3.6% 11.2% 17.6% 61.2%
[libx264 @ 0x345c120] mb I  I16..4: 26.6% 67.1%  6.3%
[libx264 @ 0x345c120] mb P  I16..4:  0.0%  0.1%  0.0%  P16..4: 38.3%  3.7%  7.6%  0.0%  0.0%    skip:50.2%
[libx264 @ 0x345c120] mb B  I16..4:  0.0%  0.0%  0.0%  B16..8: 42.5%  0.2%  0.0%  direct: 0.1%  skip:57.2%  L0:49.6% L1:50.3% BI: 0.1%
[libx264 @ 0x345c120] final ratefactor: 26.97
[libx264 @ 0x345c120] 8x8 transform intra:67.7% inter:69.5%
[libx264 @ 0x345c120] direct mvs  spatial:99.1% temporal:0.9%
[libx264 @ 0x345c120] coded y,uvDC,uvAC intra: 83.9% 61.4% 40.4% inter: 1.4% 1.0% 0.0%
[libx264 @ 0x345c120] i16 v,h,dc,p: 11% 23% 16% 50%
[libx264 @ 0x345c120] i8 v,h,dc,ddl,ddr,vr,hd,vl,hu:  5%  7%  1% 14% 19% 14% 19%  9% 12%
[libx264 @ 0x345c120] i4 v,h,dc,ddl,ddr,vr,hd,vl,hu:  3%  4%  1% 14% 19% 14% 20% 10% 15%
[libx264 @ 0x345c120] i8c dc,h,v,p: 31% 42% 16% 11%
[libx264 @ 0x345c120] Weighted P-Frames: Y:3.2% UV:1.6%
[libx264 @ 0x345c120] ref P L0: 61.2% 20.3% 10.1%  1.8%  1.8%  1.1%  1.2%  0.3%  0.3%  0.3%  0.3%  0.2%  0.3%  0.2%  0.3%  0.1%
[libx264 @ 0x345c120] ref B L0: 80.7%  6.3%  5.5%  1.4%  1.4%  1.3%  1.3%  0.3%  0.3%  0.3%  0.3%  0.3%  0.3%  0.2%  0.1%
[libx264 @ 0x345c120] ref B L1: 94.5%  5.5%
[libx264 @ 0x345c120] kb/s:8033.16
